<svg xmlns="http://www.w3.org/2000/svg" viewBox="0 0 32 32">
  <rect width="32" height="32" rx="5" fill="#1b1613"/>
  <g fill="none" stroke="#e0a37e" stroke-width="1.7" stroke-linecap="round" stroke-linejoin="round">
    <path d="M16 27V9"/>
    <path d="M16 16c0-4 3.2-7.2 7.2-7.2C23.2 12.8 20 16 16 16Z"/>
    <path d="M16 22.6c0-3.4 2.7-6.1 6.1-6.1C22.1 19.9 19.4 22.6 16 22.6Z"/>
    <path d="M16 16c-4 0-7.2-3.2-7.2-7.2C12.8 8.8 16 12 16 16Z"/>
    <path d="M16 22.6c-3.4 0-6.1-2.7-6.1-6.1C13.3 16.5 16 19.2 16 22.6Z"/>
  </g>
</svg>
